<svg id="svg" version="1.1" viewBox="0 0 300 300" width="300" height="300" xmlns="http://www.w3.org/2000/svg"><svg xmlns="http://www.w3.org/2000/svg"><defs><clipPath id="clip-1"><rect x="0" y="0" transform="scale(0.14648,0.14648)" width="2048" height="2048" fill="none"/></clipPath></defs><g clip-path="url(#clip-1)" fill="none" fill-rule="nonzero" stroke="none" stroke-width="1" stroke-linecap="butt" stroke-linejoin="miter" stroke-miterlimit="10" stroke-dasharray="" stroke-dashoffset="0" font-family="none" font-weight="none" font-size="none" text-anchor="none" style="mix-blend-mode: normal"><path d="M143.47002,33.16743c0.0936,-0.00732 0.18735,-0.01465 0.2811,-0.02197c30.39976,-1.86284 60.28257,8.49888 83.00376,28.78081c22.06494,19.74507 35.29688,47.50884 36.73828,77.0833c3.06445,61.52168 -42.69873,112.23604 -103.01807,117.48164c-1.27295,0.10986 -2.4917,0.25049 -3.77344,0.31348c-28.97124,1.88525 -57.52617,-7.66846 -79.52798,-26.61182c-23.03101,-19.77979 -37.35366,-47.82861 -39.87275,-78.0835c-2.2708,-29.09766 7.21904,-57.89136 26.34595,-79.93696c21.20142,-24.5499 47.7375,-36.68027 79.82314,-39.00498zM64.0144,203.11816c5.84971,-2.83447 11.58149,-6.00146 17.41113,-8.70996c13.49019,-6.26807 27.49937,-7.3667 41.59058,-2.37744c6.04893,2.14307 11.146,4.95264 17.59863,6.06885c3.88008,0.83057 7.28906,0.5332 11.2207,0.78809c6.81885,0.44238 20.4624,-1.80176 24.32813,5.57959c2.17236,4.14697 -0.91406,8.80811 -5.13135,10.43555c-9.22119,3.55957 -19.56152,3.36621 -29.22993,1.9834c-7.10493,-1.15283 -15.79717,-2.94287 -22.96479,-2.04785c5.15288,1.09717 10.2731,2.34229 15.35391,3.73682c7.62144,2.00684 13.05029,3.66943 21.07764,3.76758c7.76807,0.09668 18.63721,-3.74561 25.78564,-2.76562l0.63281,0.08643c1.55713,-1.25391 3.62402,-3.10547 5.28369,-4.05469c2.20898,-1.26123 6.41748,-4.16309 8.60596,-4.86621c6.1333,-1.96875 6.43506,-2.68359 10.79443,-6.86279c4.97607,-4.76807 12.4248,-11.64551 19.7666,-10.91455c1.87793,0.21387 4.19238,1.01221 5.48291,2.41113c1.22607,1.32861 0.64893,2.82861 -0.35742,4.05762c-3.28418,4.01221 -6.89648,7.86328 -10.26416,11.79932c-18.14648,20.32764 -39.84375,32.91357 -67.43115,34.55566c-15.85781,0.94336 -30.84976,-2.13428 -45.49629,-8.08447c-5.81001,-2.36133 -11.73604,-5.16797 -17.46226,-7.44141c3.38877,2.71289 8.25835,5.45068 12.13154,7.41797c18.18735,9.20947 38.68257,12.86426 58.93198,10.50879c27.91113,-2.95166 53.45947,-17.01709 70.87939,-39.02344c17.20459,-21.33252 25.15576,-48.66357 22.07959,-75.89663c-3.00439,-27.19585 -16.69482,-52.08252 -38.05518,-69.17988c-15.36621,-12.38569 -33.94189,-20.13823 -53.55176,-22.35015c-4.46631,-0.47739 -8.84912,-0.66665 -13.33594,-0.66768c-0.56104,-0.00015 -1.35645,0.05962 -1.88525,0.02124c-4.99292,0.16421 -9.9167,0.45454 -14.85732,1.21348c-22.36758,3.33647 -42.98525,14.03203 -58.59434,30.39624c-19.2668,20.54106 -29.79902,46.60884 -28.89023,74.89893c0.57056,15.81738 4.78813,31.2876 12.32373,45.20654c2.0543,3.82324 4.14478,6.73242 6.22837,10.30957z" fill="#2aaaaf"/><path d="M146.19023,54.41235c0.86982,-0.12393 4.00166,-0.09185 4.99189,-0.07939c19.3916,0.24258 37.85742,7.7499 51.48193,21.6501c12.37793,12.62959 18.52148,29.02075 19.97168,46.47393c0.27393,3.28975 0.2666,7.87822 0.17139,11.21924c-0.53613,18.66313 -7.53516,37.23003 -21.14648,50.27739c-6.35303,6.01172 -13.83252,10.33008 -22.10449,13.09717c-5.63379,1.88525 -4.55273,1.13086 -10.10449,-0.23291c-3.60645,-0.88477 -8.79785,-1.23047 -12.51562,-1.30225c-12.0772,-0.16699 -19.64194,-0.94336 -30.81182,-5.89014c-7.5542,-3.34717 -16.53267,-4.68896 -24.78896,-4.35352c-0.10825,-0.09521 -0.2165,-0.19043 -0.32476,-0.28418c-14.61548,-14.05371 -21.7377,-32.59717 -22.91514,-52.5457c-2.45127,-41.53022 25.2353,-76.49795 68.09487,-78.02974z" fill="#fec813"/><path d="M147.41162,63.19731c10.11035,-0.74194 20.88281,2.54707 28.79443,8.9001c13.99365,11.23623 19.30518,29.83066 20.95459,47.05283c1.7959,18.73081 -0.89795,42.7106 -13.25977,57.71646c-7.86768,9.55078 -17.68799,13.55273 -29.69385,14.7085c-1.83691,0.03662 -4.39893,0.10693 -6.19775,-0.06152c-9.57861,-0.90088 -18.35698,-4.12354 -25.64839,-10.44873c-13.87192,-12.07178 -17.90889,-30.79102 -18.79907,-48.32271c-1.48989,-29.34111 8.41919,-67.5208 43.8498,-69.54492z" fill="#fefefe"/><path d="M143.49126,76.47012c2.68945,1.20791 5.47456,3.37573 7.69087,5.3395c11.74658,10.63374 20.58545,25.90151 26.4082,40.4918c5.65283,14.16987 7.70654,31.72544 1.46777,46.00474c-2.83887,6.49658 -9.59766,14.68652 -16.72412,16.604c-0.99756,0.48486 -2.55469,0.82764 -3.65332,1.08838c-0.67969,0.06592 -1.51172,0.26807 -2.19434,0.41016c0.80273,-0.79834 1.23193,-1.17041 1.85303,-2.12402c4.30371,-8.18115 1.57617,-14.84766 -3.03809,-22.05469c-2.29248,-3.58154 -3.22559,-7.74756 -3.44531,-11.9707c-8.18555,8.84473 -13.68896,20.11963 -8.31431,32.08301c0.28638,0.63721 1.06421,1.90283 1.25288,2.44922c0.33208,0.5918 1.05249,1.11182 1.59155,1.56885c-2.01812,-0.55225 -3.24609,-0.61084 -5.38887,-1.41357c-7.08589,-1.89551 -13.91675,-7.70068 -17.56758,-14.00684c-5.21484,-9.00732 -6.65596,-19.71094 -4.00898,-29.77676c2.74102,-10.10625 8.19932,-15.77007 14.39282,-23.68872c6.41704,-8.20459 11.98711,-17.80415 12.21152,-28.45649c0.08276,-3.92725 -0.17988,-8.43662 -2.1772,-11.95181c-0.11353,-0.20186 -0.23247,-0.40063 -0.35654,-0.59604z" fill="#fec813"/><path d="M143.49126,76.47012c2.68945,1.20791 5.47456,3.37573 7.69087,5.3395c11.74658,10.63374 20.58545,25.90151 26.4082,40.4918c5.65283,14.16987 7.70654,31.72544 1.46777,46.00474c-2.83887,6.49658 -9.59766,14.68652 -16.72412,16.604c0.08936,-0.30322 0.15234,-0.24756 0.32373,-0.37793c13.54395,-10.29932 16.13965,-32.55469 11.47412,-47.90391c-1.67285,3.43828 -4.98633,7.07153 -8.07861,9.28433c6.4248,-12.94116 0.17578,-29.61079 -8.39502,-40.10229c-1.37402,-1.68325 -2.98096,-3.16597 -4.57617,-4.63447c0.62256,2.31973 0.71484,4.39072 0.75293,6.74253c0.16553,10.47114 -7.45093,17.17148 -12.62124,25.31777c-2.53535,3.99463 -4.42061,8.41846 -5.93306,12.95098c-1.47466,-6.0791 -0.84712,-11.66001 1.59082,-17.44072c-3.93501,4.38413 -6.33179,8.10542 -8.13735,13.74023c-4.81157,15.01479 -1.77598,33.12319 12.17578,42.05874l0.0873,0.40137c-7.08589,-1.89551 -13.91675,-7.70068 -17.56758,-14.00684c-5.21484,-9.00732 -6.65596,-19.71094 -4.00898,-29.77676c2.74102,-10.10625 8.19932,-15.77007 14.39282,-23.68872c6.41704,-8.20459 11.98711,-17.80415 12.21152,-28.45649c0.08276,-3.92725 -0.17988,-8.43662 -2.1772,-11.95181c-0.11353,-0.20186 -0.23247,-0.40063 -0.35654,-0.59604z" fill="#fe8900"/><path d="M150.76465,130.97534c0.73242,-0.6438 0.55518,-0.55034 1.44434,-0.36606c3.80713,4.09644 5.95605,10.09878 6.00732,15.64819c0.0249,2.68931 -0.20361,5.42856 0.65625,7.99937c0.56982,1.70068 1.57031,3.54053 2.521,5.05811c2.48291,3.96094 4.64355,8.16211 4.41943,12.99609c-0.23291,5.02734 -2.90186,9.18457 -6.54492,12.49658c-0.28857,0.26367 -0.57861,0.52295 -0.87305,0.7793l0.28564,0.41162c-0.67969,0.06592 -1.51172,0.26807 -2.19434,0.41016c0.80273,-0.79834 1.23193,-1.17041 1.85303,-2.12402c4.30371,-8.18115 1.57617,-14.84766 -3.03809,-22.05469c-2.29248,-3.58154 -3.22559,-7.74756 -3.44531,-11.9707c-8.18555,8.84473 -13.68896,20.11963 -8.31431,32.08301c0.28638,0.63721 1.06421,1.90283 1.25288,2.44922c-0.12173,0.13623 -0.09185,0.2915 -0.12554,0.54492c-0.51592,-0.08789 -0.88652,-0.40576 -1.27764,-0.76025c-3.21138,-2.9165 -5.6707,-6.90674 -6.8269,-11.06396c-2.95239,-10.61426 1.75459,-18.28711 8.01636,-26.34961c1.79268,-2.3083 4.33813,-6.06021 5.38403,-8.76519c0.93018,-2.40864 0.95801,-4.87529 0.7998,-7.42207z" fill="#fef281"/><path d="M158.33936,184.28467l0.14648,0.30908c-0.15527,0.34717 -0.2417,0.51123 -0.33838,0.88037l0.24756,0.11279l0.28564,0.41162c-0.67969,0.06592 -1.51172,0.26807 -2.19434,0.41016c0.80273,-0.79834 1.23193,-1.17041 1.85303,-2.12402z" fill="#fec813"/><path d="M150.06152,128.35503l2.14746,2.25425c-0.88916,-0.18428 -0.71191,-0.27773 -1.44434,0.36606c-0.19629,-1.12852 -0.3208,-1.53325 -0.70312,-2.62031z" fill="#fcf29c"/><path d="M208.19385,193.00488c3.3252,-0.33545 5.13281,-0.04248 7.96143,1.64355c-6.1084,1.58789 -11.12109,7.53076 -15.49512,11.48291c-0.78516,0.71045 -5.98828,2.75098 -7.56738,3.48779c-4.93945,2.30713 -8.4126,4.66846 -12.81006,7.7666l-1.44873,0.104c-2.83887,-0.00293 -5.13867,0.49365 -7.87061,0.56104c5.98389,-2.55176 5.97803,-3.95508 9.22266,-8.98535c2.13135,-3.5625 8.86816,-3.5625 11.25879,-5.43604c5.61914,-4.40625 8.74365,-9.82324 16.74902,-10.62451z" fill="#2aaaaf"/></g></svg></svg>